<?xml version="1.0" standalone="no"?>
<!DOCTYPE svg PUBLIC "-//W3C//DTD SVG 20010904//EN"
 "http://www.w3.org/TR/2001/REC-SVG-20010904/DTD/svg10.dtd">
<svg version="1.0" xmlns="http://www.w3.org/2000/svg"
 width="583.000000pt" height="583.000000pt" viewBox="0 0 583.000000 583.000000"
 preserveAspectRatio="xMidYMid meet">
<metadata>
Created by potrace 1.14, written by Peter Selinger 2001-2017
</metadata>
<g transform="translate(0.000000,583.000000) scale(0.100000,-0.100000)"
fill="#000000" stroke="none">
<path d="M672 5753 c-7 -10 -10 -12 -7 -5 3 6 1 12 -4 12 -13 0 -13 4 -15
-170 -1 -74 3 -141 8 -147 5 -7 5 -13 0 -13 -5 0 -9 -55 -8 -122 0 -108 2
-123 17 -126 10 -2 15 -8 12 -13 -4 -5 -1 -9 4 -9 6 0 11 5 11 10 0 6 12 10
26 10 14 0 22 -4 19 -10 -3 -6 1 -7 9 -4 9 3 13 11 10 18 -3 6 1 3 8 -6 13
-15 15 -15 24 0 9 13 12 13 19 2 6 -9 4 -11 -5 -5 -9 5 -11 4 -6 -4 5 -8 12
-9 20 -2 13 11 34 10 53 -2 6 -4 15 -2 19 4 5 8 3 9 -6 4 -8 -5 -11 -4 -7 2 4
6 18 8 33 5 19 -3 22 -7 12 -13 -9 -6 -9 -9 -1 -9 6 0 14 4 18 10 3 5 13 6 22
3 12 -5 14 -3 8 8 -5 8 2 5 15 -6 13 -11 20 -15 17 -8 -5 8 2 11 22 11 19 -1
28 -5 24 -12 -4 -7 -1 -6 8 1 15 12 36 12 56 0 6 -4 15 -2 19 4 5 8 3 9 -6 4
-8 -5 -11 -4 -7 2 4 6 18 8 33 5 19 -3 22 -7 12 -13 -9 -6 -9 -9 -1 -9 6 0 14
4 18 10 3 5 13 6 22 3 11 -4 14 -3 9 5 -10 17 0 15 18 -4 9 -8 16 -11 16 -6 0
5 11 10 25 10 16 0 22 -5 18 -12 -5 -7 -2 -7 8 1 15 12 36 12 56 0 6 -4 15 -2
19 4 5 8 3 9 -6 4 -8 -5 -11 -4 -7 2 4 6 18 8 33 5 19 -3 22 -7 12 -13 -9 -6
-9 -9 -1 -9 6 0 14 4 18 10 3 5 13 6 22 3 12 -5 14 -3 8 8 -5 8 2 5 15 -6 13
-11 20 -15 17 -8 -5 8 2 11 22 11 19 -1 28 -5 24 -12 -4 -7 -1 -6 8 1 15 12
36 12 56 0 6 -4 15 -2 19 4 5 8 3 9 -6 4 -8 -5 -11 -4 -7 2 4 6 18 8 33 5 19
-3 22 -7 12 -13 -9 -6 -9 -9 -1 -9 6 0 14 4 18 10 3 5 13 6 22 3 11 -4 14 -3
9 5 -10 17 0 15 18 -4 9 -8 16 -11 16 -6 0 5 11 10 25 10 16 0 22 -5 18 -12
-5 -7 -2 -7 8 1 15 12 36 12 56 0 6 -4 15 -2 19 4 5 8 3 9 -6 4 -8 -5 -11 -4
-7 2 4 6 18 8 33 5 19 -3 22 -7 12 -13 -9 -6 -9 -9 -1 -9 6 0 14 4 17 9 4 5
14 8 24 6 9 -1 26 2 37 8 18 9 19 9 5 -8 -14 -17 -13 -18 5 -8 11 5 27 9 35 8
8 -1 24 3 35 8 18 10 19 9 5 -8 -14 -17 -13 -18 5 -8 11 5 27 9 35 8 8 -1 24
3 35 8 18 10 19 9 5 -8 -14 -17 -13 -18 5 -8 11 5 27 9 35 8 8 -1 24 3 35 8
18 10 19 9 5 -8 -14 -17 -13 -18 5 -8 11 5 27 9 35 8 8 -1 24 3 35 8 18 10 19
9 5 -8 -14 -17 -13 -18 5 -8 11 5 27 9 35 8 8 -1 24 3 35 8 18 10 19 9 5 -8
-13 -16 -13 -17 0 -10 17 11 220 14 214 3 -3 -4 2 -5 10 -2 9 3 13 11 10 18
-3 6 1 3 8 -6 13 -15 15 -15 24 0 9 13 12 13 19 2 6 -9 4 -11 -5 -5 -9 5 -11
4 -6 -4 5 -8 12 -9 20 -2 13 11 34 10 53 -2 6 -4 15 -2 19 4 5 8 3 9 -6 4 -8
-5 -11 -4 -7 2 4 6 18 8 33 5 19 -3 22 -7 12 -13 -9 -6 -9 -9 -1 -9 6 0 14 4
18 10 3 5 13 6 22 3 12 -5 14 -3 8 8 -5 8 2 5 15 -6 13 -11 20 -15 17 -8 -5 8
2 11 22 11 19 -1 28 -5 24 -12 -4 -7 -1 -6 8 1 15 12 36 12 56 0 6 -4 15 -2
19 4 5 8 3 9 -6 4 -8 -5 -11 -4 -7 2 4 6 18 8 33 5 19 -3 22 -7 12 -13 -9 -6
-9 -9 -1 -9 6 0 15 4 18 10 6 10 33 9 52 -3 6 -4 15 -2 19 4 5 8 3 9 -6 4 -8
-5 -11 -4 -7 2 4 6 18 8 33 5 19 -3 22 -7 12 -13 -9 -6 -9 -9 -1 -9 6 0 15 4
18 10 6 10 33 9 52 -3 6 -4 15 -2 19 4 5 8 3 9 -6 4 -9 -6 -11 -4 -6 4 6 9 12
8 26 -4 14 -12 20 -13 26 -4 5 8 3 10 -6 4 -8 -5 -11 -4 -7 2 4 6 18 8 33 5
19 -3 22 -7 12 -13 -9 -6 -9 -9 -1 -9 6 0 15 4 18 10 6 10 33 9 52 -3 6 -4 15
-2 19 4 5 8 3 9 -6 4 -8 -5 -11 -4 -7 2 4 6 18 8 33 5 19 -3 22 -7 12 -13 -9
-6 -9 -9 -1 -9 6 0 15 4 18 10 6 10 33 9 52 -3 6 -4 15 -2 19 4 5 8 3 9 -6 4
-8 -5 -11 -4 -7 2 4 6 18 8 33 5 19 -3 22 -7 12 -13 -9 -6 -9 -9 -1 -9 6 0 15
4 18 10 6 10 33 9 52 -3 6 -4 15 -2 19 4 5 8 3 9 -6 4 -8 -5 -11 -4 -7 2 4 6
18 8 33 5 19 -3 22 -7 12 -13 -9 -6 -9 -9 -1 -9 6 0 14 4 18 10 3 5 13 6 22 3
12 -5 14 -3 8 8 -5 8 2 5 15 -6 13 -11 20 -15 17 -8 -5 8 2 11 22 11 19 -1 28
-5 24 -12 -4 -7 -1 -6 8 1 16 13 36 12 58 -1 10 -7 12 -6 6 4 -5 8 -3 11 6 8
8 -3 23 -1 34 5 19 10 19 9 5 -8 -12 -16 -13 -17 -1 -10 19 11 611 13 611 2 0
-5 5 -5 10 -2 6 4 8 11 5 16 -3 5 1 6 9 3 9 -3 13 -11 9 -18 -5 -7 -2 -7 8 1
15 12 36 12 56 0 6 -4 15 -2 19 4 5 8 3 9 -6 4 -8 -5 -11 -4 -6 3 11 18 38 2
33 -20 -4 -15 -2 -18 11 -13 14 5 15 4 5 -6 -15 -15 -17 -43 -3 -34 6 3 7 -1
4 -9 -3 -9 -11 -13 -17 -9 -6 3 -7 1 -3 -5 12 -20 14 -102 2 -102 -6 0 -2 -7
8 -15 12 -9 15 -15 7 -15 -8 0 -11 -6 -7 -15 3 -8 0 -15 -7 -15 -7 0 -3 -7 7
-15 12 -9 15 -15 7 -15 -8 0 -11 -6 -7 -15 3 -8 0 -15 -7 -15 -7 0 -3 -7 7
-15 12 -9 15 -15 7 -15 -8 0 -11 -6 -7 -15 3 -8 0 -15 -7 -15 -7 0 -3 -7 7
-15 11 -8 15 -15 9 -15 -6 0 -11 -16 -11 -36 0 -27 3 -33 10 -23 8 11 9 10 4
-4 -3 -10 -6 -21 -6 -23 0 -3 -4 -3 -9 0 -4 3 -6 -6 -3 -19 2 -14 8 -28 13
-30 4 -3 6 -12 3 -20 -4 -8 -9 -13 -14 -10 -4 2 -5 -7 -2 -20 2 -14 8 -28 13
-30 4 -3 6 -12 3 -20 -4 -8 -9 -13 -14 -10 -4 2 -5 -7 -2 -20 2 -14 8 -28 13
-30 4 -3 6 -12 3 -20 -4 -8 -11 -12 -17 -8 -6 3 -7 1 -3 -5 12 -20 14 -102 2
-102 -6 0 -2 -7 8 -15 12 -9 15 -15 7 -15 -8 0 -11 -6 -7 -15 3 -8 0 -15 -7
-15 -7 0 -3 -7 7 -15 12 -9 15 -15 7 -15 -8 0 -11 -6 -7 -15 3 -8 0 -15 -7
-15 -7 0 -3 -7 7 -15 12 -9 15 -15 7 -15 -8 0 -11 -6 -7 -15 3 -8 0 -15 -7
-15 -7 0 -3 -7 7 -15 11 -8 15 -15 9 -15 -6 0 -11 -16 -11 -36 0 -27 3 -33 10
-23 8 11 9 10 4 -4 -3 -10 -6 -21 -6 -23 0 -3 -4 -3 -9 0 -4 3 -6 -6 -3 -19 2
-14 8 -28 13 -30 4 -3 6 -12 3 -20 -4 -8 -9 -13 -14 -10 -4 2 -5 -7 -2 -20 2
-14 8 -28 13 -30 4 -3 6 -12 3 -20 -4 -8 -9 -13 -14 -10 -4 2 -5 -7 -2 -20 2
-14 8 -28 13 -30 4 -3 6 -12 3 -20 -4 -8 -11 -12 -17 -8 -6 3 -7 1 -3 -5 12
-20 14 -102 2 -102 -6 0 -2 -7 8 -15 12 -9 15 -15 7 -15 -8 0 -11 -6 -7 -15 3
-8 0 -15 -7 -15 -7 0 -3 -7 7 -15 12 -9 15 -15 7 -15 -8 0 -11 -6 -7 -15 3 -8
0 -15 -7 -15 -7 0 -3 -7 7 -15 12 -9 15 -15 7 -15 -8 0 -11 -6 -7 -15 3 -8 0
-15 -7 -15 -7 0 -3 -7 7 -15 11 -8 15 -15 9 -15 -6 0 -11 -16 -11 -36 0 -27 3
-33 10 -23 8 11 9 10 4 -4 -3 -10 -6 -21 -6 -23 0 -3 -4 -3 -9 0 -4 3 -6 -6
-3 -19 2 -14 8 -28 13 -30 4 -3 6 -12 3 -20 -4 -8 -10 -13 -14 -10 -10 6 0
-36 13 -52 6 -9 4 -15 -7 -19 -15 -6 -15 -8 1 -21 10 -8 12 -12 6 -8 -16 8
-17 -17 -1 -33 9 -9 7 -13 -6 -18 -15 -6 -15 -7 1 -21 10 -8 13 -12 7 -9 -15
7 -16 -97 -1 -106 9 -6 9 -8 0 -8 -17 0 -17 -47 0 -53 9 -4 9 -6 0 -6 -17 -1
-17 -48 0 -54 9 -4 9 -6 0 -6 -7 -1 -13 -12 -13 -26 0 -14 6 -25 13 -25 8 0 9
-3 1 -8 -6 -4 -11 -23 -12 -42 -1 -24 2 -30 8 -20 7 11 10 11 10 2 0 -7 -7
-15 -15 -18 -14 -6 -13 -8 2 -21 10 -8 12 -11 5 -8 -10 5 -12 0 -9 -24 3 -19
1 -31 -6 -32 -7 0 -3 -4 8 -9 11 -5 15 -9 9 -9 -7 -1 -11 -35 -13 -93 -2 -103
-4 -124 -14 -134 -3 -4 -2 -16 4 -27 8 -14 8 -18 0 -13 -7 5 -11 -4 -12 -23
-2 -43 -3 -48 -11 -57 -4 -4 -2 -14 5 -22 10 -13 9 -15 -3 -10 -13 5 -15 -1
-12 -27 2 -18 -1 -36 -8 -40 -8 -5 -8 -11 2 -23 10 -12 10 -14 1 -8 -9 5 -13
0 -13 -18 0 -14 -5 -28 -10 -31 -8 -5 -8 -11 0 -20 8 -9 8 -14 -1 -17 -6 -2
-12 -15 -13 -28 -1 -16 -7 -24 -16 -22 -11 3 -12 1 -4 -8 13 -13 7 -50 -7 -50
-5 0 -9 -10 -9 -23 0 -13 -6 -29 -13 -36 -10 -11 -9 -13 3 -7 9 5 9 2 -2 -7
-10 -8 -15 -17 -11 -20 3 -4 1 -7 -5 -7 -7 0 -12 -8 -12 -19 0 -26 -25 -72
-35 -63 -5 4 -5 2 -1 -5 6 -12 -23 -85 -36 -91 -5 -2 -8 -10 -8 -17 0 -8 -7
-20 -15 -29 -9 -8 -16 -18 -15 -21 1 -20 -1 -26 -8 -21 -4 2 -16 -16 -27 -40
-11 -24 -23 -44 -27 -44 -5 0 -8 -6 -8 -14 0 -7 -10 -21 -22 -30 -13 -9 -16
-14 -8 -10 13 7 13 6 0 -11 -8 -11 -23 -27 -33 -37 -9 -10 -17 -23 -17 -28 0
-5 -8 -10 -17 -10 -9 0 -13 -3 -10 -7 4 -3 -1 -12 -11 -20 -10 -9 -11 -11 -2
-7 8 5 -7 -13 -33 -39 -27 -25 -46 -51 -42 -57 4 -6 3 -9 -2 -8 -10 4 -59 -44
-56 -54 3 -8 -12 -12 -29 -9 -5 0 -8 -6 -8 -15 0 -8 -4 -12 -10 -9 -9 5 -14
-6 -12 -26 0 -3 -9 -11 -21 -19 -21 -12 -21 -12 -8 6 8 10 -7 -3 -32 -29 -28
-30 -51 -46 -58 -41 -8 4 -9 3 -5 -4 4 -7 2 -12 -4 -12 -6 0 -8 -5 -4 -12 4
-6 3 -8 -4 -4 -6 3 -17 -1 -25 -9 -9 -8 -20 -15 -26 -15 -5 0 -14 -6 -18 -13
-13 -20 -57 -54 -49 -37 4 8 0 6 -8 -4 -9 -11 -16 -16 -16 -11 0 5 -7 0 -15
-11 -8 -10 -15 -15 -15 -10 0 5 -9 -1 -19 -13 -14 -16 -21 -18 -24 -9 -3 8 -6
6 -6 -5 -1 -10 -5 -16 -10 -12 -5 3 -16 -2 -25 -10 -8 -9 -17 -15 -18 -15 -10
4 -45 -17 -56 -32 -10 -14 -17 -16 -27 -8 -9 7 -16 6 -24 -3 -6 -8 -8 -17 -5
-20 4 -3 -6 -4 -21 -1 -17 3 -24 1 -20 -6 3 -5 -1 -10 -10 -10 -9 0 -13 -5 -9
-11 4 -8 0 -8 -15 0 -19 11 -25 8 -22 -11 0 -4 -6 -5 -14 -1 -9 3 -25 -3 -37
-13 -12 -11 -18 -13 -14 -7 5 9 2 11 -8 7 -9 -3 -14 -10 -11 -15 3 -4 -4 -6
-15 -4 -11 2 -20 -1 -20 -7 0 -5 -6 -8 -14 -5 -8 3 -17 0 -19 -7 -3 -8 -21
-12 -45 -11 -30 1 -39 -2 -35 -12 4 -10 -2 -13 -21 -9 -14 3 -26 0 -26 -5 0
-5 -5 -9 -11 -9 -5 0 -7 5 -4 10 3 6 1 10 -4 10 -6 0 -11 -5 -11 -11 0 -5 -4
-7 -10 -4 -5 3 -10 2 -10 -3 0 -5 -18 -8 -39 -8 -22 1 -37 -2 -35 -6 2 -4 0
-9 -6 -13 -5 -3 -10 -1 -10 5 0 6 -5 8 -11 4 -6 -3 -30 -8 -52 -10 -53 -4 -75
-8 -83 -17 -4 -3 -15 -2 -25 3 -11 6 -20 6 -23 1 -7 -10 -25 -9 -43 2 -6 4
-14 3 -17 -2 -8 -12 -58 -11 -74 2 -9 7 -11 6 -6 -8 6 -14 4 -16 -7 -10 -18
12 -49 14 -49 3 0 -4 -5 -8 -11 -8 -5 0 -7 4 -4 10 3 5 2 10 -4 10 -5 0 -13
-5 -16 -10 -5 -8 -11 -8 -19 -1 -7 6 -16 8 -19 4 -4 -3 -7 -1 -7 6 0 7 -5 9
-10 6 -6 -4 -8 -10 -5 -15 3 -5 -7 -5 -22 -1 -16 4 -55 6 -88 5 -33 -1 -66 3
-74 10 -11 8 -13 8 -8 -1 5 -8 0 -11 -13 -10 -11 1 -20 5 -20 10 0 4 -5 5 -10
2 -6 -4 -8 -10 -5 -15 3 -5 -7 -5 -22 -1 -16 4 -33 6 -40 4 -6 -2 -14 1 -18 6
-4 8 -12 8 -26 0 -11 -5 -25 -8 -32 -6 -7 2 -22 0 -34 -4 -13 -5 -25 -4 -28 2
-4 5 -11 7 -16 4 -5 -4 -9 -1 -9 5 0 6 -5 8 -10 5 -6 -4 -8 -10 -5 -15 3 -5
-11 -4 -31 1 -25 7 -39 7 -49 -1 -9 -8 -15 -8 -20 0 -4 7 -13 6 -28 -2 -21
-11 -21 -10 -7 8 15 18 14 18 -14 0 -16 -10 -26 -13 -22 -8 9 14 -15 21 -36
10 -12 -6 -18 -5 -18 2 0 6 -5 8 -10 5 -6 -4 -8 -10 -5 -15 3 -5 -5 -7 -17 -4
-46 10 -68 11 -68 3 0 -5 -4 -9 -10 -9 -5 0 -7 8 -3 18 6 16 5 16 -14 -1 -14
-12 -23 -15 -28 -8 -4 7 -12 8 -24 2 -10 -6 -23 -6 -31 -1 -8 5 -18 6 -22 4
-4 -3 -8 0 -8 6 0 6 -5 8 -10 5 -6 -4 -8 -10 -5 -15 3 -5 -8 -5 -25 0 -16 5
-32 5 -35 0 -6 -9 -31 -8 -41 3 -4 3 -16 2 -27 -4 -14 -8 -18 -8 -13 0 10 15
-7 14 -23 -2 -9 -8 -12 -8 -7 0 8 15 -15 23 -36 11 -12 -6 -18 -5 -18 2 0 6
-5 8 -10 5 -6 -4 -8 -10 -5 -15 6 -9 -28 -6 -44 5 -5 3 -12 1 -16 -4 -3 -5
-14 -9 -25 -8 -10 1 -17 4 -14 8 2 4 0 10 -5 13 -5 3 -12 -1 -15 -10 -5 -12
-10 -13 -19 -6 -8 7 -18 7 -27 2 -8 -5 -21 -5 -30 0 -11 6 -21 5 -27 -1 -8 -8
-13 -7 -17 0 -4 6 -12 11 -17 11 -6 0 -8 -3 -6 -7 3 -5 -11 -8 -30 -7 -19 1
-39 7 -44 15 -5 8 -9 9 -9 3 0 -7 -9 -14 -20 -17 -11 -3 -18 -1 -14 4 8 13
-10 11 -25 -3 -9 -9 -12 -9 -7 -1 8 15 -15 23 -36 11 -13 -6 -18 -5 -19 4 0 7
-4 4 -9 -7 -5 -11 -9 -14 -9 -7 -1 6 -6 12 -12 12 -5 0 -7 -5 -3 -11 4 -8 1
-8 -12 -1 -11 5 -25 7 -33 4 -10 -3 -11 0 -5 9 7 12 5 12 -9 1 -9 -8 -21 -11
-26 -8 -5 4 -13 1 -16 -5 -10 -15 -9 -325 1 -340 4 -8 3 -9 -4 -5 -11 7 -9
-31 4 -72 2 -7 -1 -10 -6 -7 -9 5 -6 -36 6 -73 2 -7 -1 -10 -7 -7 -6 4 -8 -2
-4 -17 3 -12 7 -32 7 -44 2 -16 7 -20 27 -16 15 3 29 10 33 16 5 7 8 7 8 1 0
-15 102 -18 112 -3 5 8 8 9 8 2 0 -7 27 -10 75 -10 44 1 75 -3 75 -9 0 -7 3
-7 8 0 4 6 30 10 57 10 28 0 53 -4 57 -10 5 -7 8 -7 8 0 0 12 59 13 78 2 6 -5
12 -5 12 0 0 4 342 8 760 7 545 -1 760 2 760 10 0 7 3 7 8 -1 8 -12 36 -12 48
0 4 4 13 2 21 -4 10 -9 18 -8 32 5 12 11 21 13 25 7 4 -6 16 -7 29 -3 12 5 32
7 45 6 12 -1 25 3 28 8 3 5 12 4 20 -3 8 -6 14 -7 14 -2 0 5 9 9 20 10 13 1
18 -2 14 -10 -4 -7 4 -2 18 11 13 12 28 22 34 22 5 0 2 -5 -6 -10 -12 -8 -11
-9 5 -7 30 6 59 19 67 31 5 7 8 6 8 -3 0 -11 3 -11 15 -1 12 10 15 10 15 -1 0
-11 2 -11 10 1 5 8 12 11 16 7 4 -4 13 1 21 11 8 9 12 11 8 5 -7 -15 7 -17 21
-3 5 5 22 11 37 12 15 1 27 6 27 11 0 5 7 4 16 -3 12 -11 15 -11 12 0 -2 10 6
14 25 14 15 -1 27 3 27 8 0 5 5 6 10 3 6 -3 10 -1 10 5 0 6 5 8 10 5 6 -3 10
-1 10 6 0 8 5 7 17 -2 11 -10 14 -10 9 -1 -4 7 -1 12 8 13 35 3 41 5 39 15 -1
6 4 11 12 11 8 0 11 -5 8 -11 -4 -6 3 -3 14 6 11 10 23 18 28 18 5 0 18 8 29
17 20 17 20 17 7 0 -12 -15 -12 -17 2 -11 8 3 18 12 21 19 2 7 16 12 30 11 14
-2 24 0 23 3 -1 3 3 8 8 10 6 2 16 11 23 20 8 10 11 10 6 2 -5 -11 -3 -13 10
-8 10 4 20 7 22 7 3 0 2 5 -2 12 -4 6 -3 8 4 4 6 -3 16 0 24 7 7 8 19 12 27 9
8 -3 11 0 7 7 -4 6 -1 11 8 11 8 0 17 6 19 13 4 8 6 8 6 -3 1 -10 6 -7 17 8 9
13 22 21 30 18 8 -3 14 -1 14 4 0 6 3 9 8 8 13 -5 52 28 44 37 -4 4 1 5 11 2
9 -4 17 -2 17 4 0 6 5 7 12 3 7 -5 9 -2 5 9 -4 11 -2 14 7 11 7 -3 16 2 20 11
4 10 12 15 22 11 8 -3 12 -2 9 4 -3 5 6 12 20 16 14 3 25 12 25 20 0 8 6 11
17 7 10 -4 14 -2 10 4 -4 6 0 14 9 17 8 3 12 11 8 17 -4 8 0 8 15 0 17 -9 21
-9 19 1 -2 7 3 12 10 10 8 -1 11 1 8 6 -3 5 4 16 15 25 10 9 19 14 19 10 0 -4
13 7 29 24 16 18 32 29 35 26 3 -4 6 1 6 11 0 9 4 15 8 12 10 -6 43 30 35 38
-4 3 1 6 9 6 9 0 19 7 22 16 3 8 10 13 15 9 5 -3 12 4 16 15 3 11 13 20 20 20
9 0 12 6 8 17 -5 12 -2 15 10 10 16 -6 22 3 18 26 -1 5 3 6 9 2 5 -3 13 1 16
9 3 9 11 13 17 9 6 -4 8 0 4 10 -4 11 -1 17 9 17 8 0 12 4 9 10 -3 5 1 10 9
10 9 0 16 6 16 14 0 8 8 21 18 28 10 7 21 21 25 31 4 10 11 15 17 12 5 -3 10
-1 10 6 0 6 8 18 18 26 10 8 11 11 2 7 -13 -7 -13 -5 -1 9 7 9 18 14 24 10 6
-3 7 -1 3 5 -4 7 -2 12 4 12 6 0 8 5 5 10 -3 6 -1 10 6 10 7 0 10 3 6 6 -3 3
6 17 20 30 13 12 22 28 18 34 -3 6 -1 9 7 8 7 -2 12 3 11 10 -2 6 2 12 7 12 6
0 10 6 10 14 0 8 5 18 12 22 7 5 8 2 3 -7 -5 -8 -4 -11 1 -6 9 9 10 13 13 44
0 9 4 13 8 10 8 -9 34 43 27 54 -3 5 -2 8 3 7 4 -2 10 2 12 7 2 6 10 15 18 20
8 6 15 20 16 33 0 12 5 22 9 22 4 0 8 7 8 15 0 8 5 15 11 15 6 0 8 7 5 16 -3
8 -2 12 4 9 9 -6 14 8 11 28 0 4 4 7 9 7 5 0 9 3 8 8 -1 4 3 17 10 30 7 12 10
26 8 31 -3 5 1 12 9 15 8 3 14 11 13 18 -2 7 2 12 9 11 6 -1 10 5 8 15 -1 9 5
26 14 36 9 11 10 16 4 12 -7 -4 -13 -2 -13 3 0 6 5 11 11 11 6 0 8 7 5 16 -3
8 -2 12 4 9 6 -3 10 4 10 17 0 13 7 34 16 46 8 12 12 22 8 22 -3 0 -1 7 6 15
10 12 10 15 -1 15 -8 0 -5 6 7 15 10 8 15 15 9 15 -5 0 -3 5 5 10 9 6 11 10 3
10 -7 0 -10 7 -7 15 4 8 9 13 14 10 4 -2 5 7 2 20 -2 14 0 25 5 25 5 0 10 6
11 13 2 24 8 47 15 53 11 11 8 26 -3 19 -6 -3 -7 1 -4 9 3 9 10 16 15 16 5 0
9 5 9 11 0 5 -6 7 -12 3 -7 -4 -6 1 3 12 8 10 15 31 14 47 0 15 2 27 6 27 4 0
5 14 3 30 -4 20 -1 30 7 30 10 0 10 3 2 11 -12 12 -6 42 6 35 4 -3 6 15 6 40
-1 25 3 44 9 44 6 0 4 5 -4 10 -13 8 -13 10 0 10 11 0 11 3 2 12 -9 9 -8 16 4
29 12 13 12 19 3 25 -8 5 -10 3 -4 -6 5 -9 4 -11 -4 -6 -9 6 -9 11 0 23 10 12
10 16 -2 24 -12 7 -11 9 3 9 14 0 15 5 8 29 -6 21 -5 31 3 35 9 3 8 7 -2 14
-7 5 -9 12 -5 15 11 6 11 98 0 115 -4 6 -3 12 1 12 11 0 10 131 -1 148 -4 7
-3 12 1 12 11 0 10 131 -1 148 -4 7 -3 12 1 12 11 0 10 131 -1 148 -4 7 -3 12
1 12 10 0 10 131 0 147 -4 5 -3 13 0 17 11 11 9 1616 -2 1616 -7 0 -7 3 0 8
11 8 13 587 2 598 -3 4 -3 12 0 18 11 17 9 86 -2 86 -5 0 -5 4 2 8 7 4 10 16
8 27 -2 11 -4 24 -4 28 -1 5 -5 6 -9 3 -4 -2 -14 -1 -22 4 -8 5 -21 5 -31 -1
-12 -6 -20 -5 -24 2 -5 7 -14 4 -28 -8 -19 -17 -20 -17 -14 0 4 9 2 17 -3 17
-6 0 -10 -4 -10 -9 0 -8 -22 -7 -68 3 -12 3 -20 1 -17 -4 3 -5 1 -11 -5 -15
-5 -3 -10 -1 -10 5 0 6 -4 9 -9 5 -5 -3 -12 -1 -16 5 -4 6 -16 3 -33 -7 -22
-15 -25 -15 -15 -2 11 13 9 15 -7 14 -11 -1 -23 -4 -26 -8 -10 -9 -26 -9 -21
1 3 4 -19 7 -48 7 -29 0 -51 -3 -49 -7 2 -3 0 -9 -6 -13 -5 -3 -10 -1 -10 5 0
6 -4 9 -8 6 -4 -2 -14 -1 -22 4 -8 5 -21 5 -31 -1 -12 -6 -20 -5 -24 2 -5 7
-14 4 -28 -8 -19 -17 -20 -17 -14 0 4 9 2 17 -3 17 -6 0 -10 -4 -10 -9 0 -8
-52 -6 -77 4 -7 2 -12 1 -12 -3 3 -21 -3 -24 -17 -6 -8 10 -13 14 -9 7 4 -9
-4 -11 -30 -8 -27 4 -34 2 -29 -7 6 -10 4 -10 -8 0 -8 7 -24 9 -33 5 -13 -4
-16 -3 -11 5 4 7 2 12 -3 12 -6 0 -11 -8 -11 -17 0 -15 -2 -16 -10 -3 -5 8
-12 12 -15 8 -4 -3 -20 -2 -36 2 -16 5 -27 5 -24 0 3 -5 1 -11 -5 -15 -5 -3
-10 -1 -10 4 0 6 -3 10 -7 10 -5 -1 -10 0 -13 1 -19 7 -41 7 -45 0 -3 -5 -12
-7 -20 -3 -9 3 -23 -1 -32 -8 -15 -12 -16 -12 -10 4 3 9 2 17 -3 17 -6 0 -10
-4 -10 -9 0 -8 -52 -6 -77 4 -7 2 -12 1 -12 -3 3 -21 -3 -24 -17 -6 -8 10 -13
14 -10 7 7 -13 -31 -12 -54 2 -10 6 -12 4 -6 -10 5 -14 4 -16 -8 -6 -7 6 -22
8 -31 4 -13 -4 -16 -3 -11 5 4 7 2 12 -3 12 -6 0 -11 -8 -11 -17 0 -15 -2 -16
-10 -3 -5 8 -12 12 -15 8 -4 -3 -20 -2 -36 2 -16 5 -27 5 -24 0 3 -5 1 -11 -5
-15 -5 -3 -10 -1 -10 6 0 7 -3 9 -7 6 -3 -4 -13 -1 -21 6 -13 10 -15 9 -9 -7
6 -14 4 -16 -5 -9 -19 14 -60 14 -77 0 -12 -10 -14 -9 -8 6 3 9 2 17 -3 17 -6
0 -10 -4 -10 -9 0 -8 -52 -6 -77 4 -7 2 -12 1 -12 -3 3 -21 -3 -24 -17 -6 -8
10 -12 13 -8 5 5 -9 1 -12 -12 -7 -11 3 -26 1 -34 -4 -9 -5 -19 -5 -27 1 -8 7
-18 7 -32 0 -14 -8 -22 -8 -26 0 -4 5 -12 8 -18 6 -7 -2 -24 0 -40 4 -15 4
-25 4 -22 -1 3 -5 1 -11 -5 -15 -5 -3 -10 -2 -10 3 0 11 -13 13 -85 11 -10 0
-26 -5 -34 -12 -12 -10 -14 -9 -8 6 3 9 2 17 -3 17 -6 0 -10 -4 -10 -9 0 -8
-52 -6 -77 4 -7 2 -12 1 -12 -3 3 -21 -3 -24 -17 -6 -8 10 -13 13 -9 7 4 -8 0
-13 -10 -13 -10 0 -13 5 -9 12 4 6 -3 4 -15 -5 -24 -16 -56 -13 -44 6 3 6 -4
3 -17 -6 -18 -12 -27 -14 -37 -5 -7 6 -16 8 -19 5 -3 -3 -19 -1 -35 3 -16 5
-27 5 -24 0 3 -5 1 -11 -5 -15 -5 -3 -10 -1 -10 5 0 6 -4 9 -8 6 -4 -2 -14 -1
-22 4 -8 5 -21 5 -31 -1 -12 -6 -20 -5 -24 2 -5 7 -14 4 -28 -8 -19 -17 -20
-17 -14 0 4 9 2 17 -3 17 -6 0 -10 -4 -10 -9 0 -8 -52 -6 -77 4 -7 2 -12 1
-12 -3 3 -21 -3 -24 -17 -6 -8 10 -13 13 -9 7 4 -8 0 -13 -10 -13 -10 0 -13 5
-9 12 4 6 -3 4 -15 -5 -24 -16 -56 -13 -44 6 3 6 -4 3 -17 -6 -18 -12 -27 -14
-37 -5 -7 6 -16 8 -19 5 -3 -3 -19 -1 -35 3 -16 5 -27 5 -24 0 3 -5 1 -11 -5
-15 -5 -3 -10 -2 -10 3 0 11 -13 13 -85 11 -10 0 -26 -5 -34 -12 -12 -10 -14
-9 -8 6 3 9 2 17 -3 17 -6 0 -10 -4 -10 -9 0 -8 -52 -6 -77 4 -7 2 -12 1 -12
-3 3 -21 -3 -24 -17 -6 -8 10 -12 13 -8 5 5 -11 3 -13 -10 -8 -10 4 -26 2 -36
-3 -13 -7 -21 -7 -25 0 -4 6 -16 8 -27 4 -14 -4 -18 -2 -14 5 4 6 2 11 -3 11
-6 0 -11 -8 -11 -17 0 -15 -2 -16 -10 -3 -5 8 -12 12 -15 8 -4 -3 -20 -2 -36
2 -16 5 -27 5 -24 0 3 -5 1 -11 -5 -15 -5 -3 -10 -1 -10 5 0 6 -4 9 -9 5 -5
-3 -12 -1 -16 4 -3 6 -15 7 -28 2 -12 -4 -28 -6 -35 -4 -7 3 -20 -1 -29 -9
-15 -11 -16 -11 -10 5 3 9 2 17 -3 17 -6 0 -10 -4 -10 -9 0 -8 -52 -6 -77 4
-7 2 -12 1 -12 -3 3 -21 -3 -24 -17 -6 -8 10 -13 14 -10 7 7 -13 -31 -12 -54
2 -10 6 -12 4 -6 -10 5 -14 4 -16 -8 -6 -7 6 -22 8 -31 4 -13 -4 -16 -3 -11 5
4 7 2 12 -3 12 -6 0 -11 -8 -11 -17 0 -15 -2 -16 -10 -3 -5 8 -12 12 -15 8 -4
-3 -20 -2 -36 2 -16 5 -27 5 -24 0 3 -5 1 -11 -5 -15 -5 -3 -10 -1 -10 6 0 7
-3 9 -6 6 -4 -3 -14 -2 -23 3 -10 5 -23 5 -31 0 -8 -5 -19 -6 -25 -2 -17 11
-35 11 -41 1 -4 -6 -11 -6 -19 1 -9 8 -15 8 -20 0 -4 -7 -13 -7 -27 1 -15 8
-19 8 -14 0 4 -6 2 -11 -3 -11 -6 0 -11 6 -12 13 0 6 -4 3 -9 -8 -5 -11 -9
-14 -9 -7 -1 7 -5 11 -10 7 -5 -3 -12 -1 -16 5 -4 6 -16 3 -33 -7 -22 -15 -25
-15 -15 -2 11 13 9 15 -7 14 -11 -1 -23 -4 -26 -8 -10 -10 -26 -9 -20 1 6 10
-30 9 -40 0 -3 -3 -19 -2 -35 2 -16 5 -27 5 -24 0 3 -5 1 -11 -5 -15 -5 -3
-10 -1 -10 6 0 7 -3 9 -7 6 -3 -4 -12 -2 -19 4 -8 7 -14 7 -19 -1 -3 -5 -11
-10 -16 -10 -6 0 -7 5 -4 10 9 15 -4 12 -21 -5 -14 -14 -48 -10 -39 4 2 4 -11
7 -30 7 -18 0 -31 -4 -29 -8 3 -5 1 -8 -5 -8 -5 0 -11 5 -13 10 -2 6 -9 2 -16
-7z m608 1 c0 -8 -19 -13 -24 -6 -3 5 1 9 9 9 8 0 15 -2 15 -3z m2880 -4408
c0 -2 -8 -10 -17 -17 -16 -13 -17 -12 -4 4 13 16 21 21 21 13z m-3330 -726 c0
-5 -5 -10 -11 -10 -5 0 -7 5 -4 10 3 6 8 10 11 10 2 0 4 -4 4 -10z m480 0 c0
-5 -5 -10 -11 -10 -5 0 -7 5 -4 10 3 6 8 10 11 10 2 0 4 -4 4 -10z m480 0 c0
-5 -5 -10 -11 -10 -5 0 -7 5 -4 10 3 6 8 10 11 10 2 0 4 -4 4 -10z m340 0 c0
-5 -5 -10 -11 -10 -5 0 -7 5 -4 10 3 6 8 10 11 10 2 0 4 -4 4 -10z m1820 -196
c0 -8 -19 -13 -24 -6 -3 5 1 9 9 9 8 0 15 -2 15 -3z"/>
<path d="M2010 5759 c0 -5 5 -7 10 -4 6 3 10 8 10 11 0 2 -4 4 -10 4 -5 0 -10
-5 -10 -11z"/>
<path d="M2430 5759 c0 -5 5 -7 10 -4 6 3 10 8 10 11 0 2 -4 4 -10 4 -5 0 -10
-5 -10 -11z"/>
<path d="M2490 5759 c0 -5 5 -7 10 -4 6 3 10 8 10 11 0 2 -4 4 -10 4 -5 0 -10
-5 -10 -11z"/>
<path d="M2910 5759 c0 -5 5 -7 10 -4 6 3 10 8 10 11 0 2 -4 4 -10 4 -5 0 -10
-5 -10 -11z"/>
<path d="M2970 5759 c0 -5 5 -7 10 -4 6 3 10 8 10 11 0 2 -4 4 -10 4 -5 0 -10
-5 -10 -11z"/>
<path d="M3390 5759 c0 -5 5 -7 10 -4 6 3 10 8 10 11 0 2 -4 4 -10 4 -5 0 -10
-5 -10 -11z"/>
<path d="M3450 5759 c0 -5 5 -7 10 -4 6 3 10 8 10 11 0 2 -4 4 -10 4 -5 0 -10
-5 -10 -11z"/>
<path d="M706 4598 c-11 -15 -12 -25 -5 -34 7 -9 7 -19 0 -33 -7 -13 -8 -22
-1 -26 15 -9 12 -27 -2 -19 -10 5 -10 4 -1 -6 8 -9 9 -19 3 -31 -7 -11 -7 -20
0 -24 15 -9 12 -27 -2 -19 -10 5 -10 4 -1 -6 8 -9 9 -19 3 -31 -7 -11 -7 -20
0 -24 15 -9 12 -27 -2 -19 -10 5 -10 4 -1 -6 8 -9 9 -19 3 -31 -7 -11 -7 -20
0 -24 15 -9 12 -27 -2 -19 -10 5 -10 4 -1 -6 8 -9 9 -19 3 -31 -7 -11 -7 -20
0 -24 15 -9 12 -27 -2 -19 -10 5 -10 4 -1 -6 8 -9 9 -19 3 -31 -7 -11 -7 -20
0 -24 5 -3 10 -11 10 -16 0 -6 -5 -7 -11 -3 -8 5 -8 1 0 -13 7 -14 7 -23 0
-30 -8 -8 -7 -13 0 -17 15 -10 14 -29 -1 -20 -10 5 -10 4 -1 -6 8 -9 9 -19 3
-31 -7 -11 -7 -20 0 -24 5 -3 10 -11 10 -16 0 -6 -4 -7 -10 -4 -6 4 -7 -2 -1
-18 6 -16 6 -28 -2 -36 -6 -6 -7 -11 -1 -11 5 0 10 -9 11 -20 1 -13 -2 -18
-10 -13 -9 5 -9 3 -2 -8 12 -16 13 -39 2 -56 -5 -7 -4 -13 1 -13 10 0 9 -30
-1 -47 -4 -6 -2 -15 4 -19 8 -4 7 -9 -2 -15 -9 -6 -10 -9 -2 -9 13 0 12 -18
-2 -39 -5 -10 -4 -16 3 -19 8 -2 9 -9 2 -22 -7 -13 -6 -20 2 -22 8 -3 8 -10
-2 -27 -6 -13 -7 -21 -2 -17 12 7 10 -32 -1 -51 -4 -6 -2 -15 4 -19 8 -4 7 -9
-2 -15 -9 -6 -10 -9 -2 -9 9 0 11 -17 3 -40 -6 -17 -4 -56 4 -61 4 -4 3 -17
-4 -29 -8 -15 -8 -20 -1 -16 6 4 11 4 11 1 0 -4 -5 -16 -11 -27 -9 -16 -8 -19
3 -12 11 6 11 5 0 -8 -7 -9 -9 -19 -4 -22 10 -6 9 -36 -2 -54 -4 -6 -2 -12 3
-12 13 0 10 -22 -4 -32 -6 -5 -6 -8 2 -8 12 0 12 -37 -1 -58 -4 -7 -3 -12 2
-12 10 0 9 -30 -1 -47 -4 -6 -3 -14 1 -17 10 -6 9 -36 -2 -54 -4 -6 -2 -12 3
-12 13 0 10 -22 -4 -32 -6 -5 -6 -8 1 -8 13 0 11 -80 -1 -101 -6 -8 -4 -10 4
-4 10 6 11 3 2 -14 -7 -11 -8 -21 -3 -21 10 0 9 -30 -2 -48 -4 -6 -3 -12 3
-12 11 0 8 -40 -4 -60 -5 -9 -4 -11 3 -6 15 9 15 1 2 -24 -7 -13 -7 -21 0 -25
8 -5 8 -11 0 -20 -8 -9 -8 -15 0 -20 14 -9 13 -28 -2 -19 -10 5 -10 4 -1 -6 9
-9 9 -19 2 -33 -8 -14 -8 -18 0 -13 14 9 14 0 1 -24 -7 -13 -7 -21 0 -25 8 -5
8 -11 0 -20 -8 -9 -8 -15 0 -20 14 -9 13 -28 -2 -19 -10 5 -10 4 -1 -6 9 -9 9
-19 2 -33 -8 -14 -8 -18 0 -13 14 9 14 0 1 -24 -7 -13 -7 -21 0 -25 8 -5 8
-11 0 -20 -8 -9 -8 -15 0 -20 5 -3 10 -11 10 -16 0 -6 -5 -7 -11 -3 -8 5 -8 1
0 -13 7 -14 7 -23 0 -30 -8 -8 -7 -13 0 -17 15 -10 14 -29 -1 -20 -10 5 -10 4
-1 -6 8 -9 9 -19 3 -31 -7 -11 -7 -20 0 -24 5 -3 10 -11 10 -16 0 -6 -4 -8 -8
-5 -11 7 -9 -37 2 -45 4 -4 3 -17 -4 -29 -8 -15 -8 -20 -1 -16 14 9 14 0 0
-26 -9 -16 -8 -19 3 -12 11 6 11 5 0 -8 -7 -9 -9 -19 -4 -22 10 -6 9 -36 -2
-54 -4 -6 -3 -12 1 -12 5 0 9 -9 10 -20 1 -13 -2 -18 -10 -13 -9 5 -9 3 -2 -8
12 -16 13 -39 2 -56 -5 -7 -4 -13 1 -13 10 0 9 -30 -1 -47 -4 -6 -2 -15 4 -19
8 -4 7 -9 -2 -15 -9 -6 -10 -9 -2 -9 9 0 11 -17 3 -40 -6 -17 -4 -56 4 -61 4
-4 3 -17 -4 -29 -7 -13 -8 -20 -2 -16 12 7 10 -32 -1 -51 -4 -6 -3 -14 3 -18
7 -4 7 -12 0 -25 -7 -13 -6 -20 2 -22 8 -3 8 -9 0 -24 -8 -15 -8 -24 0 -32 8
-8 8 -15 -2 -27 -9 -11 -9 -15 -1 -15 7 0 10 -3 8 -7 -3 -5 1 -14 9 -21 10 -9
14 -9 14 -1 0 9 3 9 14 0 11 -9 15 -9 19 1 4 10 6 10 6 1 1 -7 6 -13 12 -13 5
0 8 4 5 8 -3 5 1 9 9 9 8 0 15 -4 15 -9 0 -4 5 -8 11 -8 5 0 8 3 6 8 -3 4 8 7
23 7 16 1 26 -3 24 -7 -3 -4 -1 -8 5 -8 5 0 13 5 16 11 5 6 12 4 22 -8 8 -10
12 -12 8 -5 -3 6 -1 12 6 12 7 0 9 3 6 6 -3 4 -2 15 4 25 7 14 6 19 -3 19 -10
0 -10 2 1 9 9 6 10 11 2 15 -6 4 -8 13 -4 19 11 18 11 47 0 54 -5 3 -3 9 4 14
11 7 11 9 1 9 -10 0 -10 5 -2 20 8 15 8 20 -1 20 -8 0 -8 4 1 15 9 11 9 15 1
15 -7 0 -9 5 -5 12 12 20 14 58 2 58 -7 0 -7 4 0 13 7 8 7 18 2 27 -5 8 -6 19
-2 24 11 18 11 56 0 56 -7 0 -7 4 0 13 7 8 7 18 2 27 -5 8 -6 19 -2 24 9 15
12 56 4 56 -4 0 -6 15 -5 32 1 18 2 33 3 33 1 0 3 10 4 22 2 13 -1 23 -6 23
-5 0 -6 6 -2 12 12 19 12 48 1 48 -6 0 -6 5 -1 13 11 14 11 37 1 54 -4 6 -3
14 3 18 7 4 7 12 0 24 -5 10 -6 21 -3 25 11 10 11 46 0 46 -5 0 -4 7 3 15 10
12 10 15 0 15 -10 0 -10 3 0 15 10 12 10 15 0 15 -8 0 -9 4 -4 13 11 15 11 38
1 54 -4 7 -3 22 3 33 8 14 8 20 0 20 -6 0 -8 5 -3 13 12 19 12 37 1 37 -6 0
-5 6 2 15 10 12 10 15 0 15 -8 0 -9 4 -4 13 11 15 11 38 1 54 -4 7 -3 22 3 33
8 15 8 20 -1 20 -7 0 -8 5 -3 13 11 15 11 38 1 54 -4 7 -3 22 3 33 8 14 8 20
0 20 -6 0 -8 5 -4 12 11 18 12 48 2 48 -5 0 -6 5 -2 12 10 16 11 68 1 68 -5 0
-5 5 -1 12 10 16 11 68 1 68 -5 0 -5 5 -1 12 10 16 11 68 1 68 -5 0 -5 5 -1
12 11 17 11 58 1 58 -4 0 -3 9 3 20 8 15 8 20 -2 20 -10 0 -10 2 1 9 9 6 10
11 2 15 -6 4 -8 13 -4 19 10 17 11 47 1 53 -4 3 -8 10 -8 15 0 6 4 8 8 5 4 -2
8 4 8 15 0 10 -5 19 -10 19 -6 0 -5 5 1 11 6 6 9 18 6 27 -4 10 -2 13 5 8 8
-4 10 -2 6 7 -3 8 0 18 6 22 9 6 9 10 -1 16 -11 7 -11 9 -1 9 7 0 24 12 37 26
13 14 29 23 34 19 6 -3 11 -1 11 5 0 7 7 10 14 7 11 -4 13 -1 9 10 -4 11 -3
14 5 9 7 -4 26 3 44 15 18 14 28 17 24 8 -4 -7 0 -5 9 6 9 11 18 19 20 18 12
-7 26 -2 20 7 -4 6 1 7 11 3 11 -4 15 -3 11 4 -5 7 0 9 13 6 12 -3 22 1 26 11
3 9 10 13 15 10 5 -3 9 0 9 5 0 6 9 11 20 11 11 0 20 4 20 10 0 5 3 9 8 8 13
-2 62 21 62 30 0 5 11 8 24 7 19 -2 23 1 19 13 -4 10 -2 13 5 8 6 -4 23 1 37
10 14 9 25 14 25 10 0 -3 9 3 20 14 12 12 25 18 30 15 4 -3 10 0 12 7 4 10 23
17 56 20 6 1 12 5 12 10 0 4 7 8 16 8 9 0 12 5 8 13 -5 7 0 6 11 -3 11 -9 16
-10 11 -2 -4 7 -1 12 9 12 9 0 13 4 10 10 -3 6 1 7 9 4 9 -4 16 -1 16 6 0 6 6
10 12 8 7 -3 21 4 32 13 10 10 23 16 28 13 4 -3 8 -1 8 5 0 5 9 8 20 6 11 -2
23 1 26 7 4 7 2 8 -4 4 -7 -4 -12 -2 -12 3 0 9 23 16 33 9 1 -1 21 11 45 26
23 15 47 24 51 21 5 -2 11 2 15 10 3 9 12 12 22 8 12 -4 15 -3 10 5 -6 11 5
17 27 13 4 0 7 3 7 8 0 5 14 12 30 16 17 4 30 11 30 17 0 6 7 7 16 4 8 -3 12
-2 9 4 -5 9 15 15 38 11 4 0 7 7 8 17 0 9 3 12 6 5 3 -9 11 -7 26 7 11 11 29
20 39 20 10 0 18 5 18 11 0 5 5 7 10 4 6 -3 10 -1 10 4 0 6 3 10 8 10 18 -3
33 2 28 10 -3 4 4 8 17 7 13 -1 21 4 19 12 -1 7 8 12 22 12 13 0 29 6 36 14 6
8 19 12 27 9 12 -5 14 -3 8 7 -6 10 -3 12 13 8 12 -4 20 -2 17 3 -3 4 6 11 20
15 14 3 25 10 25 16 0 5 5 6 10 3 6 -3 13 1 16 9 3 9 10 14 14 11 12 -8 41 6
34 16 -4 7 15 11 42 8 3 0 13 9 23 20 14 16 20 18 31 8 9 -9 11 -9 6 0 -6 10
20 25 49 28 6 0 9 7 7 14 -1 7 2 10 7 7 5 -4 13 -1 16 5 4 5 13 8 21 5 8 -3
17 1 20 9 4 8 15 15 26 15 10 0 16 4 13 10 -3 6 1 7 9 4 9 -3 16 -2 16 3 0 7
64 10 80 3 3 -1 10 -3 15 -4 26 -5 44 -19 38 -30 -4 -6 2 -4 12 4 15 12 17 12
10 1 -6 -11 -4 -13 8 -8 11 4 17 1 17 -7 0 -8 7 -17 16 -20 10 -4 13 -2 8 6
-10 16 68 -31 84 -50 10 -13 12 -13 12 -1 1 11 4 10 14 -4 9 -11 20 -15 32
-11 11 4 16 4 12 -1 -8 -9 36 -35 58 -35 8 0 14 -3 14 -8 0 -8 61 -38 73 -34
4 1 7 -2 7 -8 0 -5 7 -10 15 -10 8 0 15 -5 15 -12 0 -6 3 -9 6 -5 3 3 22 -3
42 -13 19 -11 40 -16 45 -13 6 3 7 1 3 -5 -7 -11 -3 -14 27 -16 6 -1 20 -11
30 -23 10 -13 26 -20 37 -18 11 2 20 0 20 -6 0 -5 8 -9 18 -9 10 0 28 -9 39
-19 12 -11 24 -17 27 -14 3 4 6 1 6 -6 0 -7 5 -9 12 -5 6 4 17 -1 25 -11 7
-11 13 -15 13 -11 0 5 7 3 15 -4 9 -7 18 -10 22 -6 3 3 13 -3 21 -15 8 -11 20
-18 28 -15 8 3 17 -1 20 -9 3 -7 12 -11 20 -8 7 3 17 -2 20 -11 3 -9 11 -13
17 -9 5 3 15 -1 21 -9 15 -20 46 -30 46 -15 1 7 6 2 13 -11 7 -12 16 -19 20
-16 4 4 7 3 7 -3 0 -6 9 -9 20 -6 12 3 20 1 18 -5 -2 -5 0 -9 3 -9 4 1 17 -7
30 -18 18 -16 21 -17 16 -4 -3 9 0 22 6 28 6 6 7 11 1 11 -10 0 -10 62 -1 77
3 5 2 15 -3 23 -4 7 -4 24 0 36 6 14 5 26 0 29 -5 3 -5 18 1 37 5 17 5 36 1
42 -7 10 -8 31 -2 39 6 7 6 48 -1 58 -4 7 -3 23 1 35 6 14 5 26 0 29 -5 3 -5
18 1 37 5 17 5 36 1 42 -7 10 -8 31 -2 39 7 9 7 38 -1 43 -6 4 -6 11 1 19 8
10 8 15 0 20 -8 5 -8 10 0 20 8 10 8 15 0 20 -8 5 -8 10 0 20 8 10 8 15 0 20
-8 5 -8 10 0 20 8 10 8 15 0 20 -8 5 -8 10 0 20 8 10 8 15 0 20 -8 5 -8 10 0
20 8 10 8 15 0 20 -8 5 -8 10 0 20 7 8 7 15 1 19 -6 4 -6 18 -1 36 9 32 -1 47
-22 34 -10 -6 -10 -4 0 8 11 14 11 16 0 14 -7 -1 -19 -5 -25 -9 -8 -5 -13 -3
-13 5 -1 8 -6 6 -15 -6 -15 -20 -15 -20 -15 0 0 16 -2 17 -10 4 -9 -13 -10
-13 -10 0 0 13 -1 13 -10 0 -6 -10 -10 -11 -10 -2 0 6 -5 12 -11 12 -5 0 -7
-5 -3 -11 5 -8 1 -8 -14 0 -14 7 -23 8 -27 1 -3 -5 -11 -10 -16 -10 -6 0 -8 4
-5 8 8 14 -31 7 -49 -8 -9 -7 -15 -9 -14 -4 4 21 -2 26 -18 13 -15 -12 -16
-12 -8 1 8 13 7 13 -9 1 -15 -12 -19 -13 -26 -1 -7 11 -11 11 -24 1 -12 -11
-16 -11 -16 -1 0 10 -3 10 -14 1 -9 -8 -16 -8 -20 -2 -7 11 -45 9 -65 -3 -8
-5 -16 -3 -21 5 -7 10 -11 10 -24 0 -12 -11 -16 -11 -16 -1 0 9 -3 10 -13 1
-10 -8 -17 -7 -25 1 -8 8 -15 8 -27 -2 -12 -10 -15 -10 -15 0 0 9 -3 10 -13 1
-10 -8 -17 -7 -25 1 -8 8 -15 8 -27 -2 -12 -10 -15 -10 -15 0 0 9 -4 9 -13 2
-8 -7 -18 -7 -27 -2 -9 5 -19 5 -27 -2 -9 -7 -13 -7 -13 2 0 9 -3 10 -13 1
-10 -8 -17 -7 -25 1 -8 8 -15 8 -27 -2 -12 -10 -15 -10 -15 0 0 9 -4 9 -13 2
-8 -7 -18 -7 -27 -2 -9 5 -19 5 -27 -2 -9 -7 -13 -7 -13 2 0 9 -3 10 -13 1
-10 -8 -17 -7 -25 1 -8 8 -15 8 -27 -2 -12 -10 -15 -10 -15 0 0 9 -4 9 -13 2
-8 -7 -18 -7 -27 -2 -9 5 -19 5 -27 -2 -9 -7 -13 -7 -13 2 0 9 -3 10 -13 1
-10 -8 -17 -7 -25 1 -8 8 -15 8 -27 -2 -12 -10 -15 -10 -15 0 0 9 -4 9 -13 2
-8 -7 -18 -7 -27 -2 -9 5 -19 5 -27 -2 -9 -7 -13 -7 -13 2 0 9 -3 10 -13 1
-10 -8 -17 -7 -25 1 -8 8 -15 8 -27 -2 -12 -10 -15 -10 -15 0 0 9 -4 9 -13 2
-8 -7 -18 -7 -27 -2 -9 5 -19 5 -27 -2 -9 -7 -13 -7 -13 2 0 10 -3 10 -14 1
-10 -8 -16 -9 -21 -1 -6 10 -52 7 -63 -4 -2 -3 -13 -1 -23 4 -12 7 -20 7 -24
0 -4 -6 -12 -7 -18 -3 -15 10 -38 10 -56 -1 -8 -5 -16 -3 -22 5 -7 12 -9 11
-9 -1 0 -12 -2 -12 -9 -1 -6 9 -11 10 -15 2 -4 -6 -13 -8 -19 -4 -18 12 -30
11 -54 -4 -19 -11 -23 -11 -32 5 -7 11 -10 13 -11 3 0 -9 -4 -10 -12 -5 -16
11 -39 11 -57 0 -8 -5 -16 -4 -21 4 -6 10 -9 9 -13 -1 -5 -12 -6 -12 -6 0 -1
10 -4 11 -15 2 -10 -9 -16 -9 -21 -1 -5 8 -11 8 -21 -1 -11 -9 -14 -8 -14 2
-1 9 -5 8 -15 -5 -12 -15 -15 -16 -15 -5 0 9 -7 16 -15 16 -8 0 -12 -4 -9 -9
3 -4 1 -8 -5 -8 -5 0 -12 4 -15 8 -6 11 -36 9 -55 -2 -8 -5 -17 -3 -22 5 -7
12 -9 11 -9 -1 0 -12 -2 -12 -9 -1 -6 9 -10 10 -16 2 -4 -8 -11 -9 -18 -3 -16
12 -48 7 -58 -10 -7 -10 -9 -9 -9 3 0 9 -7 16 -15 16 -8 0 -12 -4 -9 -9 3 -4
1 -8 -5 -8 -5 0 -12 4 -15 8 -6 11 -36 9 -55 -2 -8 -5 -17 -3 -22 5 -7 12 -9
11 -9 -1 0 -12 -2 -12 -9 -1 -6 9 -10 10 -16 2 -4 -8 -11 -9 -18 -2 -21 16
-22 16 -49 -1 -26 -17 -28 -17 -37 0 -7 11 -10 13 -11 3 0 -9 -4 -10 -12 -5
-16 11 -39 11 -57 0 -8 -5 -16 -4 -21 4 -6 10 -9 9 -13 -1 -5 -12 -6 -12 -6 0
-1 10 -4 11 -15 2 -10 -9 -16 -9 -21 -1 -5 8 -11 8 -21 -1 -11 -9 -14 -8 -14
2 -1 9 -5 8 -15 -5 -12 -15 -15 -16 -15 -5 0 9 -7 16 -15 16 -8 0 -12 -4 -9
-9 3 -4 1 -8 -5 -8 -5 0 -12 4 -15 8 -6 11 -36 9 -55 -2 -8 -5 -17 -3 -22 5
-7 12 -9 11 -9 -1 0 -12 -2 -12 -9 -1 -6 9 -10 10 -16 2 -4 -8 -11 -9 -18 -2
-21 16 -22 16 -50 -2 -25 -16 -28 -16 -34 -2 -5 13 -7 14 -14 3 -7 -10 -9 -10
-9 0 0 6 -5 12 -11 12 -5 0 -7 -5 -3 -11 5 -8 1 -8 -14 0 -14 7 -23 8 -27 1
-3 -5 -11 -10 -16 -10 -6 0 -8 4 -5 8 8 14 -31 7 -49 -8 -9 -7 -15 -9 -13 -3
3 9 -4 15 -14 12 -28 -7 -68 -4 -68 5 0 6 -5 4 -10 -4 -6 -10 -10 -11 -10 -2
0 6 -5 12 -11 12 -5 0 -7 -5 -3 -11 5 -8 1 -8 -13 0 -14 7 -23 7 -31 -1 -8 -8
-12 -8 -12 -2 0 15 -35 11 -56 -7 -10 -8 -15 -9 -11 -2 14 22 -12 23 -27 1z"/>
<path d="M2881 3883 c-6 -10 -11 -14 -11 -9 0 4 -11 1 -25 -8 -14 -9 -25 -13
-25 -9 0 5 -5 0 -11 -10 -6 -9 -14 -15 -20 -12 -5 4 -22 -3 -38 -14 -15 -11
-31 -18 -35 -14 -3 3 -6 1 -6 -6 0 -8 -6 -11 -17 -7 -10 4 -14 4 -10 0 4 -5
-3 -14 -15 -21 -17 -9 -19 -12 -6 -13 9 0 18 -4 20 -9 2 -5 12 -11 23 -13 11
-1 26 -9 33 -16 8 -7 18 -10 23 -7 5 4 9 1 9 -4 0 -6 9 -11 20 -11 11 0 20 -5
20 -11 0 -5 -5 -7 -12 -3 -7 4 -8 3 -4 -5 6 -9 11 -9 21 -1 9 8 14 6 19 -6 4
-9 13 -14 21 -10 8 3 15 1 15 -4 0 -9 39 -26 53 -22 4 1 7 -6 7 -15 0 -15 2
-16 10 -3 6 9 10 10 10 3 0 -6 10 -15 23 -19 12 -4 25 -11 28 -16 3 -5 16 -10
27 -11 12 -1 22 -5 22 -9 0 -4 7 -8 16 -8 9 0 12 -5 8 -12 -5 -8 0 -7 11 2 10
8 16 10 13 5 -4 -6 2 -17 14 -24 13 -8 18 -9 13 -1 -5 8 0 7 13 -1 12 -7 18
-17 15 -23 -3 -5 -1 -6 5 -2 6 3 13 2 17 -4 4 -6 11 -8 16 -5 5 4 9 1 9 -5 0
-7 6 -10 13 -7 6 2 18 -3 25 -12 11 -13 12 -13 6 -1 -5 10 0 8 15 -4 12 -11
31 -20 41 -21 11 -1 28 -9 37 -17 10 -9 28 -19 41 -22 12 -4 22 -12 22 -17 0
-6 5 -7 10 -4 6 3 13 0 16 -8 3 -8 13 -14 22 -13 9 2 23 -4 30 -13 10 -12 12
-12 6 -1 -7 13 -5 13 9 1 9 -7 14 -18 11 -23 -4 -6 4 -5 16 2 15 8 20 8 16 1
-6 -10 6 -15 27 -12 4 0 7 -5 7 -13 0 -9 9 -13 25 -12 13 2 22 -1 19 -5 -3 -5
7 -20 21 -33 15 -14 24 -30 20 -36 -3 -5 0 -12 7 -15 10 -4 13 -30 11 -103 0
-53 3 -102 8 -109 7 -7 6 -13 0 -17 -6 -4 -9 -22 -7 -41 1 -19 -2 -35 -6 -35
-5 0 -6 -5 -2 -11 11 -18 10 -139 -1 -139 -7 0 -7 -3 0 -8 6 -4 10 -20 10 -37
0 -16 -4 -33 -10 -37 -7 -5 -6 -8 0 -8 6 0 11 -9 11 -20 0 -11 -4 -20 -9 -20
-4 0 -5 -5 -1 -11 10 -16 11 -99 1 -99 -5 0 -5 -5 -2 -10 4 -6 12 -7 18 -3 7
4 6 0 -2 -10 -7 -9 -11 -26 -8 -36 3 -11 0 -22 -7 -25 -8 -3 -8 -5 1 -5 6 -1
9 -10 5 -23 -4 -16 -2 -19 9 -13 11 6 12 5 2 -6 -7 -7 -13 -22 -13 -34 0 -12
6 -27 13 -34 7 -8 7 -11 1 -8 -9 5 -12 -33 -12 -138 0 -107 3 -143 11 -138 8
5 8 2 0 -8 -15 -18 -13 -191 2 -201 6 -5 5 -8 -3 -8 -15 0 -13 -70 3 -70 5 0
4 -4 -3 -8 -7 -5 -10 -22 -8 -40 2 -18 -1 -32 -7 -32 -5 0 -5 -5 2 -13 6 -8 8
-16 5 -20 -3 -3 1 -4 10 -3 8 1 19 6 23 11 4 4 1 5 -7 0 -8 -4 4 9 28 30 23
21 42 45 42 52 0 8 4 12 9 9 5 -3 14 8 21 24 7 16 16 27 21 24 5 -3 9 2 9 11
0 8 7 18 15 21 8 4 12 10 9 15 -3 5 0 9 7 9 7 0 9 3 6 7 -4 3 2 13 13 20 11 8
18 18 16 22 -8 12 30 62 40 54 5 -5 6 -4 2 1 -4 5 -2 16 5 24 10 13 9 15 -3 8
-8 -4 -6 -1 4 8 10 8 19 29 20 46 1 16 6 30 11 30 6 0 3 5 -5 10 -9 6 -11 10
-3 10 7 0 10 7 7 15 -4 8 -1 21 5 29 8 10 8 16 -3 25 -16 14 -9 54 8 45 6 -3
2 2 -8 10 -20 16 -20 16 0 17 17 0 17 1 2 7 -12 5 -15 11 -8 22 5 9 5 19 -2
27 -6 7 -6 13 -1 13 5 0 8 13 5 30 -2 18 -9 28 -16 24 -6 -3 -2 2 8 10 19 16
19 16 -5 17 -13 0 -18 3 -11 6 6 2 12 9 12 15 0 5 -6 16 -12 23 -50 56 -55 70
-30 85 14 9 12 10 -7 4 -15 -4 -21 -2 -17 4 4 6 -2 15 -11 21 -10 5 -17 12
-15 15 1 3 2 7 1 9 0 1 -2 12 -3 24 -2 19 0 20 16 12 17 -9 18 -8 7 9 -7 11
-20 18 -28 15 -9 -2 -5 3 9 12 23 14 23 15 3 10 -17 -5 -22 -2 -20 14 0 11 5
17 9 15 5 -3 5 -10 2 -16 -4 -6 0 -6 13 1 11 6 24 7 28 3 5 -4 5 -2 1 5 -4 7
-13 10 -21 6 -10 -3 -15 1 -15 12 0 11 5 15 14 12 17 -7 15 15 -2 36 -10 11
-9 17 3 27 18 15 20 34 3 24 -8 -5 -8 -1 2 12 22 29 24 30 18 13 -4 -9 -1 -16
7 -16 17 0 2 32 -17 40 -10 4 -10 6 0 6 7 1 10 6 6 13 -4 6 -3 8 4 4 6 -3 18
1 26 10 18 18 21 34 6 34 -5 0 -9 -5 -7 -11 1 -6 -5 -14 -13 -16 -13 -4 -13
-3 0 6 13 9 13 11 1 11 -11 0 -9 4 5 14 15 11 22 12 34 3 13 -11 13 -10 1 6
-8 10 -20 16 -28 13 -8 -4 -11 -1 -7 5 3 6 18 8 33 5 16 -4 21 -3 13 2 -13 9
-12 38 1 59 4 6 3 14 -1 17 -10 6 -9 36 2 54 4 6 3 12 -2 12 -5 0 -9 7 -9 15
0 12 3 12 15 2 13 -10 14 -9 2 12 -7 14 -13 46 -14 72 -1 40 1 46 14 36 12
-10 12 -8 -1 13 -9 16 -13 36 -9 55 3 17 3 45 -1 62 -4 19 -3 30 2 27 5 -3 6
2 3 10 -6 15 -17 20 -36 17 -5 0 -8 4 -8 9 0 6 -9 10 -21 10 -11 0 -17 5 -14
10 5 9 -15 15 -37 11 -5 0 -8 3 -8 8 0 5 -11 12 -25 15 -14 4 -23 11 -20 16 3
6 -1 7 -10 3 -10 -3 -21 0 -25 7 -5 7 -17 14 -27 15 -23 1 -65 30 -57 38 3 3
-3 3 -15 0 -12 -3 -21 -1 -21 4 0 5 -14 17 -31 27 -18 11 -29 14 -25 8 4 -6
-3 -6 -19 1 -14 7 -25 16 -25 20 0 5 -4 5 -10 2 -5 -3 -10 -1 -10 4 0 6 -9 11
-21 11 -11 0 -17 5 -14 10 3 6 -4 10 -18 10 -14 0 -30 7 -37 15 -7 8 -16 12
-21 9 -5 -3 -9 0 -9 5 0 6 -7 11 -15 11 -8 0 -15 5 -15 11 0 6 -7 9 -15 5 -9
-3 -15 0 -15 9 0 8 -5 15 -11 15 -5 0 -8 -4 -5 -9 4 -5 -5 -4 -18 2 -13 7 -22
15 -20 19 3 5 -4 8 -15 8 -12 0 -21 4 -21 8 0 4 -9 8 -20 9 -11 1 -27 9 -36
17 -9 9 -20 14 -25 11 -5 -4 -9 -1 -9 4 0 6 -9 11 -20 11 -11 0 -20 5 -20 10
0 6 -7 10 -16 10 -8 0 -13 4 -9 9 3 6 -4 8 -15 6 -11 -2 -20 1 -20 6 0 6 -4 7
-10 4 -5 -3 -10 -1 -10 5 0 7 -7 9 -16 6 -8 -3 -12 -2 -9 4 3 6 -1 10 -10 10
-9 0 -13 4 -10 10 3 6 -1 7 -9 4 -10 -4 -16 -1 -16 7 0 12 -2 12 -9 1 -7 -11
-9 -10 -15 3 -3 9 -10 13 -16 10 -5 -3 -10 -1 -10 4 0 6 -5 11 -11 11 -5 0 -7
-6 -3 -12 6 -10 4 -10 -8 0 -14 11 -18 10 -27 -5z m1066 -938 c0 -8 -4 -12 -9
-9 -5 3 -6 10 -3 15 9 13 12 11 12 -6z m-83 -255 c-6 -6 -10 -3 -10 10 0 13 4
16 10 10 7 -7 7 -13 0 -20z"/>
<path d="M2290 3587 c0 -5 -7 -7 -15 -3 -9 3 -15 0 -15 -9 0 -8 -9 -15 -21
-15 -11 0 -17 -4 -14 -10 3 -6 -1 -7 -9 -4 -9 3 -16 1 -16 -6 0 -6 -5 -8 -11
-5 -6 4 -16 -1 -23 -10 -7 -10 -26 -18 -43 -19 -20 -1 -29 -5 -26 -13 3 -7 -2
-13 -10 -13 -27 0 -67 -22 -60 -33 4 -6 1 -7 -7 -2 -8 5 -18 1 -27 -10 -9 -14
-13 -15 -13 -4 -1 12 -2 12 -13 -1 -12 -15 -30 -22 -54 -23 -7 0 -11 -5 -10
-11 2 -9 -2 -11 -34 -15 -5 0 -8 -5 -5 -9 2 -4 -5 -9 -17 -9 -12 -1 -23 -7
-25 -13 -2 -5 -8 -7 -14 -4 -5 3 -16 -2 -24 -12 -9 -11 -13 -14 -10 -8 3 6 -1
11 -8 11 -9 0 -12 -7 -8 -16 3 -9 2 -13 -3 -9 -4 4 -14 3 -22 -3 -7 -6 -13 -8
-13 -3 0 4 -7 -1 -16 -12 -8 -10 -12 -12 -8 -4 7 12 5 13 -8 3 -8 -7 -18 -9
-22 -5 -4 4 -6 0 -4 -8 2 -8 -3 -15 -9 -16 -7 -1 -18 -2 -24 -3 -5 0 -8 -5 -5
-10 4 -5 -4 -7 -16 -3 -14 3 -19 2 -14 -6 6 -11 -12 -17 -36 -13 -5 0 -8 -4
-8 -10 0 -6 -7 -8 -16 -5 -8 3 -12 2 -9 -4 3 -6 -1 -10 -9 -10 -9 0 -16 -5
-16 -11 0 -5 -4 -7 -10 -4 -5 3 -10 2 -10 -4 0 -5 -9 -8 -20 -6 -13 3 -18 0
-14 -7 5 -7 1 -9 -9 -5 -10 4 -16 2 -14 -6 1 -7 -8 -12 -20 -11 -16 1 -20 -3
-16 -15 4 -9 3 -13 -2 -9 -4 4 -15 2 -23 -5 -13 -10 -14 -9 -7 3 6 11 3 10
-12 -2 -11 -10 -27 -18 -37 -18 -11 0 -15 -4 -10 -12 5 -8 0 -7 -11 2 -17 14
-18 13 -12 -2 4 -13 1 -18 -9 -18 -10 0 -14 -6 -10 -15 3 -8 2 -15 -2 -15 -7
0 -6 -191 2 -222 2 -10 1 -18 -2 -18 -4 0 -7 -18 -7 -40 0 -22 4 -40 8 -40 5
0 5 -5 2 -10 -8 -14 -9 -736 0 -750 3 -5 1 -10 -6 -10 -8 0 -8 -4 1 -15 7 -9
8 -15 2 -15 -11 0 -11 -18 1 -37 5 -8 3 -13 -4 -13 -8 0 -8 -4 1 -15 7 -9 8
-15 2 -15 -11 0 -11 -18 1 -37 5 -8 3 -13 -4 -13 -8 0 -8 -4 1 -15 7 -9 8 -15
2 -15 -11 0 -11 -18 1 -37 5 -8 3 -13 -4 -13 -8 0 -8 -4 1 -15 7 -9 8 -15 2
-15 -11 0 -11 -18 1 -37 5 -8 3 -13 -4 -13 -8 0 -8 -4 1 -15 7 -9 8 -15 2 -15
-11 0 -11 -18 1 -37 5 -8 3 -13 -4 -13 -8 0 -8 -4 1 -15 10 -12 10 -15 -1 -15
-11 0 -11 -2 1 -10 11 -7 11 -10 2 -10 -10 0 -10 -5 -2 -20 6 -11 7 -20 3 -20
-4 0 -8 -11 -8 -25 0 -14 5 -25 10 -25 7 0 7 -3 0 -8 -12 -8 -14 -72 -2 -72 4
0 5 -6 0 -12 -11 -18 -5 -98 8 -115 10 -11 8 -12 -7 -7 -10 4 -16 4 -12 0 8
-10 59 -15 53 -6 -6 9 37 7 53 -3 7 -5 12 -3 12 5 0 9 3 9 10 -2 8 -12 10 -12
10 -1 0 10 3 11 14 2 10 -8 16 -9 21 -1 9 14 27 2 19 -13 -3 -7 2 -3 10 7 12
15 16 16 16 5 0 -12 2 -12 10 1 9 13 10 13 10 0 0 -13 1 -13 10 0 9 13 10 13
10 0 0 -13 1 -13 10 0 9 13 10 13 10 0 0 -13 1 -13 10 0 9 13 10 13 10 0 0
-13 1 -13 10 0 9 13 10 13 10 0 0 -13 1 -13 10 0 9 13 10 13 10 0 0 -13 1 -13
11 0 8 11 12 12 16 3 2 -7 9 -13 14 -13 6 0 8 4 5 8 -2 4 4 8 14 8 10 0 17 -4
14 -7 -2 -4 0 -11 6 -14 6 -4 10 -3 9 2 -4 20 2 24 18 12 15 -12 16 -12 8 1
-8 13 -7 13 8 1 9 -7 17 -9 17 -4 0 5 7 10 15 10 8 0 15 -7 15 -14 0 -12 3
-11 16 1 20 21 28 20 20 -1 -5 -15 -4 -15 9 1 10 14 15 15 15 6 0 -10 3 -11
11 -3 6 6 17 9 23 7 9 -3 11 134 11 548 -1 542 2 606 30 580 5 -4 5 -2 1 5 -7
13 28 55 38 46 3 -4 6 1 6 10 0 10 5 14 15 11 8 -4 15 -1 15 6 0 10 3 10 14 1
8 -7 16 -8 19 -4 3 5 144 8 314 7 205 0 313 3 322 10 11 8 13 8 7 -1 -5 -9 0
-13 13 -13 12 0 21 -4 21 -10 0 -5 7 -10 15 -10 8 0 15 -4 15 -10 0 -5 7 -10
15 -10 8 0 15 -7 15 -15 0 -9 7 -18 15 -21 10 -4 13 -13 10 -24 -3 -10 -2 -21
2 -23 10 -6 9 -59 -2 -77 -5 -9 -4 -11 3 -6 16 10 15 -7 0 -23 -10 -11 -10
-13 0 -7 6 4 12 3 12 -1 0 -5 -6 -15 -12 -22 -9 -10 -9 -12 -1 -7 8 4 11 -1
10 -14 -1 -11 -6 -20 -12 -20 -5 0 -3 -6 5 -13 17 -13 26 -42 11 -33 -5 4 -12
2 -16 -4 -3 -5 -1 -10 6 -10 8 0 7 -5 -2 -17 -10 -11 -10 -14 -1 -9 6 4 12 3
12 -1 0 -5 -6 -15 -12 -22 -11 -12 -10 -13 6 -7 14 5 16 3 9 -6 -5 -7 -9 -20
-8 -28 0 -8 -4 -18 -10 -22 -6 -5 -5 -8 4 -8 11 0 11 -3 0 -17 -8 -10 -9 -14
-2 -10 8 5 11 0 10 -13 -1 -11 -6 -20 -12 -20 -5 0 -1 -7 9 -15 13 -10 15 -15
6 -15 -7 0 -10 -3 -7 -7 4 -3 1 -13 -6 -21 -9 -13 -9 -14 1 -8 6 4 12 3 12 -1
0 -5 -6 -15 -12 -22 -11 -11 -10 -13 0 -7 14 8 12 -19 -2 -43 -6 -10 -5 -12 2
-7 16 10 15 -7 0 -23 -8 -8 -8 -11 -2 -8 7 4 14 -2 17 -13 3 -11 1 -18 -3 -15
-5 3 -11 1 -15 -5 -3 -5 -1 -10 6 -10 8 0 7 -5 -2 -17 -10 -11 -10 -14 -1 -9
14 8 12 -19 -2 -43 -6 -10 -5 -12 2 -7 8 5 12 -1 12 -14 0 -14 -4 -19 -12 -14
-10 6 -10 4 0 -7 15 -17 16 -43 0 -33 -7 5 -8 3 -2 -7 13 -21 14 -39 1 -39 -7
0 -6 -4 2 -9 13 -8 13 -12 0 -27 -9 -11 -9 -15 -1 -10 8 5 12 0 12 -14 0 -14
-4 -19 -12 -14 -10 6 -10 5 -1 -7 10 -12 10 -18 0 -29 -10 -10 -8 -12 8 -6 15
6 17 4 8 -5 -6 -6 -9 -18 -6 -27 5 -11 3 -13 -8 -7 -11 7 -12 6 -2 -6 10 -12
10 -18 0 -29 -10 -10 -8 -12 7 -6 20 7 20 7 0 -15 -10 -12 -13 -19 -5 -14 11
6 13 4 8 -8 -3 -10 -3 -17 1 -18 40 -4 62 -3 62 3 0 4 5 8 11 8 5 0 7 -4 4
-10 -3 -6 1 -7 9 -4 9 3 14 9 11 13 -2 4 21 7 51 6 44 -1 54 2 49 13 -4 12 -3
13 10 2 11 -9 15 -9 15 -1 0 7 4 10 8 7 5 -3 20 1 35 9 19 9 27 10 27 2 0 -6
7 -2 15 9 10 14 14 15 15 5 0 -11 4 -10 16 5 8 10 13 12 9 4 -4 -10 -2 -9 8 3
15 18 32 24 22 7 -3 -6 1 -7 9 -4 9 3 16 9 16 13 0 4 10 8 22 8 13 1 24 7 26
13 2 5 8 8 13 4 5 -3 9 0 9 5 0 6 5 11 11 11 5 0 7 -6 3 -12 -6 -10 -5 -10 8
-1 8 7 18 9 22 5 5 -4 6 2 4 13 -2 15 2 19 15 17 11 -2 26 5 34 15 8 10 11 11
7 3 -5 -10 0 -9 14 4 23 20 30 32 12 21 -13 -8 -13 8 1 22 8 8 7 13 -2 18 -8
6 -10 4 -4 -5 5 -9 4 -11 -4 -6 -9 6 -9 11 -1 21 7 8 9 19 5 25 -3 5 -2 10 3
10 5 0 7 12 5 28 -2 15 -4 35 -4 45 0 10 -5 15 -12 11 -7 -3 -4 1 6 9 11 9 14
18 8 21 -6 4 -8 13 -5 21 4 8 11 12 18 8 6 -4 5 1 -2 10 -17 20 -22 75 -8 81
7 3 6 5 -1 5 -7 1 -13 6 -13 12 0 5 4 8 9 4 6 -3 6 6 1 25 -5 17 -9 33 -10 37
-1 3 4 10 12 14 10 7 10 9 0 9 -7 0 -10 5 -7 10 4 6 1 18 -6 26 -9 12 -9 13 2
9 10 -4 15 1 15 14 0 11 -4 17 -8 15 -4 -3 -8 0 -8 5 0 6 5 11 10 11 7 0 7 6
1 19 -6 10 -8 21 -4 24 3 4 0 13 -7 22 -11 13 -10 15 1 10 10 -4 15 1 15 14 0
11 -3 18 -7 15 -4 -2 -5 13 -4 33 2 21 -1 43 -6 49 -7 9 -5 15 7 22 9 5 12 12
7 15 -5 3 -8 23 -7 43 2 20 -2 46 -8 58 -11 20 -10 20 7 6 10 -8 16 -10 12 -3
-4 7 -8 33 -9 57 0 31 -4 43 -12 39 -6 -4 -5 1 2 10 8 9 11 21 7 27 -3 5 -1
10 6 10 7 0 4 7 -7 15 -13 11 -14 13 -3 9 13 -4 16 1 13 22 -1 15 -9 31 -16
35 -10 7 -9 9 5 9 14 0 16 4 9 18 -5 9 -7 23 -4 31 3 9 0 11 -9 7 -8 -4 -5 0
5 8 11 9 15 16 8 16 -8 0 -9 7 -2 24 5 13 6 26 4 29 -11 11 -11 57 0 58 6 0 2
4 -9 9 -19 8 -19 9 -1 9 15 1 16 4 6 16 -9 11 -9 15 -1 15 8 0 9 6 3 18 -5 9
-7 23 -4 31 3 9 0 11 -9 7 -8 -4 -5 0 5 8 15 12 16 16 5 16 -8 0 -10 3 -4 8 6
4 9 18 8 32 -5 39 -5 43 0 78 4 28 2 31 -11 20 -13 -11 -14 -10 -3 10 15 28
23 84 11 77 -5 -3 -7 8 -5 24 2 20 -1 30 -8 28 -7 -1 -11 4 -9 12 2 8 -3 11
-13 8 -8 -4 -15 -2 -15 4 0 6 -4 8 -9 4 -5 -3 -15 1 -23 8 -7 7 -17 15 -23 18
-5 2 -9 7 -8 11 2 4 -7 5 -20 2 -14 -2 -28 4 -40 19 -10 12 -15 15 -11 7 7
-13 5 -13 -9 -2 -9 8 -22 10 -28 6 -7 -4 -9 -3 -5 4 7 12 -16 28 -49 33 -11 2
-28 13 -37 23 -10 10 -18 16 -18 12 0 -3 -15 1 -32 11 -18 9 -36 16 -40 15 -5
-1 -8 3 -8 9 0 5 -4 8 -9 4 -6 -3 -14 3 -20 12 -6 10 -11 15 -11 10 0 -4 -15
0 -32 10 -18 10 -40 18 -48 18 -8 1 -13 7 -12 15 2 8 0 12 -3 8 -4 -4 -25 2
-46 12 -21 11 -45 20 -54 20 -8 0 -15 7 -15 16 0 8 -4 13 -9 10 -12 -8 -71 23
-71 36 0 6 -3 9 -6 5 -4 -3 -46 14 -95 39 -49 24 -89 41 -89 38 0 -4 -9 5 -20
18 -13 17 -27 24 -45 23 -14 -2 -23 1 -19 6 5 9 -9 13 -35 10 -7 -2 -11 2 -7
7 3 5 -1 9 -9 9 -8 0 -15 -5 -15 -10z m115 -37 c3 -5 1 -10 -4 -10 -6 0 -11 5
-11 10 0 6 2 10 4 10 3 0 8 -4 11 -10z m965 -560 c0 -5 -5 -10 -11 -10 -5 0
-7 5 -4 10 3 6 8 10 11 10 2 0 4 -4 4 -10z"/>
<path d="M3914 2819 c-4 -7 -3 -9 4 -5 5 3 13 0 15 -6 4 -9 6 -10 6 -1 1 17
-16 25 -25 12z"/>
<path d="M3896 2741 c-15 -17 -15 -19 -1 -25 9 -3 14 -2 10 3 -3 5 2 17 11 25
8 9 11 16 6 16 -5 0 -17 -8 -26 -19z"/>
<path d="M3895 2611 c-3 -5 -2 -12 3 -15 5 -3 9 1 9 9 0 17 -3 19 -12 6z"/>
<path d="M3886 2536 c14 -23 52 -27 38 -4 -4 6 -9 6 -14 -2 -6 -9 -10 -6 -15
9 -3 11 -11 21 -16 21 -5 0 -2 -11 7 -24z"/>
<path d="M3914 2468 c0 -7 11 -24 24 -38 21 -21 23 -22 14 -4 -6 12 -8 25 -4
29 4 5 1 5 -5 1 -8 -4 -13 -1 -13 8 0 9 -4 16 -8 16 -5 0 -8 -6 -8 -12z"/>
<path d="M2166 2084 c-18 -13 -22 -29 -5 -19 6 4 5 -3 -3 -14 -11 -18 -11 -23
2 -31 10 -6 11 -10 3 -10 -16 0 -15 -80 1 -80 7 0 7 -3 1 -8 -16 -11 -19 -45
-3 -37 10 6 11 5 1 -6 -7 -7 -13 -19 -13 -27 0 -8 5 -10 13 -6 9 6 9 5 1 -7
-15 -18 -15 -69 0 -69 7 0 7 -3 1 -8 -16 -11 -19 -45 -3 -37 10 6 11 5 1 -6
-7 -7 -13 -19 -13 -27 0 -8 5 -10 13 -6 7 5 7 1 -2 -10 -13 -15 -13 -19 0 -27
11 -7 11 -9 0 -9 -11 0 -11 -3 0 -17 8 -9 9 -14 3 -10 -7 4 -11 -2 -11 -18 0
-14 5 -25 11 -25 7 0 7 -3 1 -8 -16 -11 -19 -46 -3 -36 11 6 11 5 0 -8 -10
-13 -10 -17 0 -21 10 -4 10 -6 1 -6 -7 -1 -13 -8 -13 -16 0 -8 6 -15 13 -15 8
0 9 -3 1 -8 -14 -9 -14 -43 0 -61 8 -11 8 -13 -1 -8 -15 9 -14 -32 1 -52 8
-11 8 -13 0 -8 -7 4 -11 -2 -11 -18 0 -16 4 -22 11 -18 7 4 6 1 -1 -8 -10 -12
-10 -18 0 -29 9 -10 9 -11 0 -6 -9 5 -12 0 -11 -17 2 -26 28 -58 28 -35 0 9 3
9 10 -2 9 -13 10 -13 10 0 0 13 1 13 10 0 9 -13 10 -13 10 0 0 12 2 12 9 1 6
-9 11 -10 15 -2 4 6 12 9 17 6 16 -11 50 -14 44 -5 -6 10 15 8 33 -3 7 -5 12
-3 12 5 0 10 2 10 9 -1 7 -11 9 -11 14 0 5 12 6 12 6 0 1 -11 4 -11 18 0 15
12 16 12 8 -1 -8 -13 -7 -13 8 -1 14 11 17 11 17 0 0 -11 2 -11 10 1 9 13 10
13 11 0 0 -10 3 -8 8 5 5 12 4 23 -3 27 -6 5 -7 8 -1 8 6 0 10 44 10 112 0 64
-4 116 -10 120 -7 5 -7 8 0 8 10 0 11 90 1 115 -2 7 -2 16 1 19 9 9 9 476 0
476 -5 0 -6 4 -3 8 8 13 -271 9 -288 -4z"/>
</g>
</svg>
